<svg width="96" height="96" xmlns="http://www.w3.org/2000/svg" xmlns:xlink="http://www.w3.org/1999/xlink" xml:space="preserve" overflow="hidden"><g transform="translate(-712 -582)"><path d="M785.981 592 729 592 729 667.961 785.981 667.961C788.747 667.964 790.992 665.727 791 662.961L791 597C790.992 594.234 788.747 591.997 785.981 592ZM731 594 738.261 594 738.261 665.961 731 665.961ZM789 662.963C788.993 664.625 787.643 665.967 785.981 665.963L740.261 665.963 740.261 594 785.981 594C787.643 593.996 788.993 595.339 789 597Z"/><path d="M763.63 628.781C767.853 628.76 771.259 625.32 771.238 621.097 771.217 616.874 767.777 613.468 763.554 613.489 759.346 613.51 755.946 616.927 755.946 621.135 755.956 625.368 759.397 628.792 763.63 628.781ZM763.63 615.489C766.748 615.51 769.259 618.055 769.238 621.173 769.217 624.291 766.672 626.802 763.554 626.781 760.451 626.76 757.946 624.238 757.946 621.135 757.96 618.008 760.503 615.482 763.63 615.489Z"/><path d="M777.463 635.268C775.233 633.57 772.685 632.336 769.969 631.64 767.915 631.01 765.779 630.686 763.63 630.68 758.663 630.779 753.841 632.378 749.8 635.268 748.852 636.003 748.287 637.127 748.263 638.326L748.263 645.972 779 645.972 779 638.326C778.977 637.127 778.412 636.002 777.463 635.268ZM777 643.972 750.261 643.972 750.261 638.326C750.288 637.75 750.562 637.214 751.014 636.856 753.081 635.388 755.379 634.277 757.814 633.57 759.705 633.016 761.661 632.717 763.631 632.68 765.597 632.688 767.552 632.986 769.431 633.564 771.895 634.186 774.208 635.3 776.231 636.839 776.696 637.195 776.978 637.741 777 638.326Z"/></g></svg>