<svg width="96" height="96" xmlns="http://www.w3.org/2000/svg" xmlns:xlink="http://www.w3.org/1999/xlink" xml:space="preserve" overflow="hidden"><g transform="translate(-304 -582)"><path d="M391.182 611.682 374 611.682 374 605.082 359.414 590.5 330 590.5 330 611.682 312.818 611.682C310.157 611.682 308 613.839 308 616.5L308 648.682C308 651.343 310.157 653.5 312.818 653.5L330 653.5 330 670.5 374 670.5 374 653.5 391.182 653.5C393.843 653.5 396 651.343 396 648.682L396 616.5C396 613.839 393.843 611.682 391.182 611.682ZM360.017 593.931 370.569 604.483C370.573 604.487 370.573 604.493 370.569 604.497 370.567 604.499 370.565 604.5 370.562 604.5L360 604.5 360 593.938C360 593.932 360.005 593.928 360.01 593.928 360.013 593.928 360.015 593.929 360.017 593.931ZM332 592.5 358 592.5 358 606.5 372 606.5 372 620.5 332 620.5ZM372 668.5 332 668.5 332 640.5 372 640.5ZM394 648.682C394 650.238 392.738 651.5 391.182 651.5L374 651.5 374 638.5 330 638.5 330 651.5 312.818 651.5C311.262 651.5 310 650.238 310 648.682L310 616.5C310 614.944 311.262 613.682 312.818 613.682L330 613.682 330 622.5 374 622.5 374 613.682 391.182 613.682C392.738 613.682 394 614.944 394 616.5Z"/><path d="M320 621.5C320 622.605 319.105 623.5 318 623.5 316.895 623.5 316 622.605 316 621.5 316 620.395 316.895 619.5 318 619.5 319.105 619.5 320 620.395 320 621.5Z"/><path d="M342 649.5 362 649.5 362 651.5 342 651.5Z"/><path d="M342 657.5 362 657.5 362 659.5 342 659.5Z"/></g></svg>