<svg width="96" height="96" xmlns="http://www.w3.org/2000/svg" xmlns:xlink="http://www.w3.org/1999/xlink" xml:space="preserve" overflow="hidden"><g transform="translate(-556 -572)"><path d="M646.291 609.088C646.261 608.638 645.933 608.264 645.491 608.175L634.919 606.021C634.59 605.951 634.249 606.054 634.013 606.293L632.685 607.621 613.237 588.371C610.822 585.617 606.687 585.207 603.777 587.431L582.683 604.024C582.456 604.014 582.23 604 582 604 572.064 604.012 564.012 612.064 564 622L564 643.1C561.674 643.578 560.003 645.625 560 648L560 653 604 653 604 648C603.993 645.607 602.294 643.554 599.944 643.1L600 622 600 622C599.996 617.979 598.635 614.077 596.138 610.926L605.624 599.576C607.124 600.129 608.771 600.141 610.279 599.611L625.612 614.694 624.156 616.149C623.92 616.384 623.817 616.722 623.881 617.049L625.926 627.732C626.012 628.179 626.388 628.511 626.842 628.541L637.448 629.248 637.516 629.248C638.068 629.266 638.531 628.833 638.549 628.281 638.567 627.728 638.133 627.266 637.581 627.248L627.745 626.593 625.945 617.188 635.045 608.088 644.345 609.982 645 619.827C645.044 620.375 645.515 620.788 646.064 620.759 646.615 620.725 647.034 620.25 647 619.699 647 619.697 647 619.696 647 619.694ZM602 648 602 651 562 651 562 648C562 646.343 563.343 645 565 645L599 645C600.657 645 602 646.343 602 648ZM598 622 597.944 643 566 643 566 622C566.013 613.948 572.003 607.158 579.991 606.143L575.981 609.3C572.458 612.251 571.994 617.499 574.945 621.022 576.526 622.909 578.861 624 581.323 624 581.444 624 581.566 624 581.688 623.991 584.02 623.885 586.2 622.807 587.7 621.019L594.831 612.487C596.887 615.233 597.998 618.57 598 622ZM586.168 619.735C585.035 621.103 583.374 621.924 581.6 621.993 579.825 622.091 578.095 621.418 576.852 620.148 574.383 617.681 574.38 613.68 576.847 611.21 576.973 611.084 577.105 610.963 577.241 610.848L601.041 592.113C601.052 592.105 601.059 592.113 601.057 592.122 600.721 594.626 601.783 597.112 603.823 598.602ZM603.042 593.652C602.682 590.914 604.61 588.403 607.348 588.043 610.086 587.683 612.597 589.611 612.957 592.349 613.317 595.087 611.389 597.598 608.651 597.958 608.218 598.015 607.78 598.015 607.348 597.958 605.104 597.661 603.339 595.896 603.042 593.652ZM615.014 592.936 631.238 609 626.994 613.245 612.137 598.634C613.906 597.34 614.966 595.292 615 593.1 615 593.07 615 593 615 592.946 615 592.928 615 592.926 615.014 592.936Z"/><path d="M580.636 612.147C579.341 613.181 579.13 615.069 580.164 616.363 581.199 617.658 583.086 617.869 584.381 616.835 584.468 616.766 584.55 616.692 584.629 616.613L584.629 616.613C585.803 615.444 585.807 613.545 584.639 612.37 583.557 611.284 581.831 611.188 580.635 612.147ZM583.215 615.2 583.215 615.2C582.82 615.578 582.197 615.578 581.802 615.2 581.411 614.81 581.411 614.176 581.802 613.786 582.192 613.395 582.825 613.395 583.216 613.786 583.607 614.176 583.607 614.809 583.216 615.2 583.216 615.2 583.216 615.2 583.216 615.2Z"/><path d="M608.49 590.547C607.136 590.277 605.819 591.156 605.549 592.51 605.28 593.864 606.158 595.181 607.513 595.451 608.867 595.72 610.183 594.842 610.453 593.487 610.517 593.165 610.517 592.833 610.453 592.51 610.255 591.519 609.481 590.745 608.49 590.547ZM608 593.5C607.724 593.5 607.5 593.276 607.5 593 607.5 592.724 607.724 592.5 608 592.5 608.276 592.5 608.5 592.724 608.5 593 608.5 593.276 608.276 593.5 608 593.5Z"/></g></svg>