<svg width="96" height="96" xmlns="http://www.w3.org/2000/svg" xmlns:xlink="http://www.w3.org/1999/xlink" xml:space="preserve" overflow="hidden"><g transform="translate(-592 -312)"><path d="M648 344 663 344 663 346 648 346Z"/><path d="M648 350 663 350 663 352 648 352Z"/><path d="M648 356 658 356 658 358 648 358Z"/><path d="M679 336 673 336 673 331.6C673 331.173 672.729 330.793 672.325 330.654 661.84 327.154 650.508 327.115 640 330.544 629.492 327.115 618.16 327.153 607.675 330.653 607.271 330.792 606.999 331.172 607 331.6L607 336 601 336C600.448 336 600 336.448 600 337L600 385C600 385.552 600.448 386 601 386L633.1 386C633.52 387.759 635.092 389 636.9 389L643.1 389C644.908 389 646.48 387.759 646.9 386L679 386C679.552 386 680 385.552 680 385L680 337C680 336.448 679.552 336 679 336ZM671 332.32 671 378.22C661.22 375.256 650.78 375.256 641 378.22L641 332.32C650.761 329.227 661.239 329.227 671 332.32ZM609 332.32C618.761 329.227 629.239 329.227 639 332.32L639 378.22C629.22 375.256 618.78 375.256 609 378.22ZM678 384 646 384C645.448 384 645 384.448 645 385L645 385.1C645 386.149 644.149 387 643.1 387L636.9 387C635.851 387 635 386.149 635 385.1L635 385C635 384.448 634.552 384 634 384L602 384 602 338 607 338 607 379.6C607 380.152 607.447 380.6 608 380.6 608.11 380.6 608.22 380.582 608.325 380.546 618.5 377.153 629.5 377.153 639.675 380.546 639.692 380.55 639.708 380.552 639.725 380.554 639.799 380.576 639.875 380.589 639.952 380.592 639.968 380.592 639.984 380.6 640 380.6 640.016 380.6 640.025 380.595 640.037 380.594 640.113 380.592 640.189 380.58 640.262 380.56 640.278 380.56 640.295 380.554 640.312 380.549L640.325 380.549C650.5 377.156 661.5 377.156 671.675 380.549 671.78 380.584 671.89 380.601 672 380.6 672.552 380.6 673 380.152 673 379.6L673 338 678 338Z"/></g></svg>